<svg width="24" height="24" viewBox="0 0 24 24" fill="none" xmlns="http://www.w3.org/2000/svg">
<path d="M17.5535 6.09636C16.5178 5.58418 15.4104 5.21195 14.2526 5C14.1104 5.27171 13.9443 5.63718 13.8298 5.9279C12.599 5.73227 11.3796 5.73227 10.1714 5.9279C10.0569 5.63718 9.88704 5.27171 9.74357 5C8.58454 5.21195 7.47584 5.58555 6.44013 6.09907C4.3511 9.43565 3.78479 12.6894 4.06794 15.8969C5.4535 16.9905 6.79627 17.6548 8.11638 18.0896C8.44233 17.6154 8.73302 17.1114 8.98345 16.5802C8.5065 16.3887 8.04969 16.1523 7.61805 15.8779C7.73256 15.7882 7.84457 15.6944 7.95279 15.598C10.5855 16.8995 13.4459 16.8995 16.0472 15.598C16.1566 15.6944 16.2686 15.7882 16.3819 15.8779C15.949 16.1536 15.4909 16.39 15.014 16.5816C15.2644 17.1114 15.5538 17.6168 15.881 18.0909C17.2024 17.6562 18.5464 16.9919 19.932 15.8969C20.2642 12.1785 19.3644 8.95472 17.5535 6.09636ZM9.34212 13.9243C8.55181 13.9243 7.9037 13.1445 7.9037 12.1948C7.9037 11.2452 8.53797 10.4641 9.34212 10.4641C10.1463 10.4641 10.7944 11.2439 10.7805 12.1948C10.7818 13.1445 10.1463 13.9243 9.34212 13.9243ZM14.6578 13.9243C13.8675 13.9243 13.2194 13.1445 13.2194 12.1948C13.2194 11.2452 13.8537 10.4641 14.6578 10.4641C15.462 10.4641 16.1101 11.2439 16.0962 12.1948C16.0962 13.1445 15.462 13.9243 14.6578 13.9243Z" fill="url(#paint0_linear_11642_6868)"/>
<defs>
<linearGradient id="paint0_linear_11642_6868" x1="12" y1="5" x2="-6.4814e-07" y2="20" gradientUnits="userSpaceOnUse">
<stop stop-color="#8C3CCC"/>
<stop offset="1" stop-color="#D9ACFD"/>
</linearGradient>
</defs>
</svg>
