<svg width="40" height="40" viewBox="0 0 40 40" fill="none" xmlns="http://www.w3.org/2000/svg">
<g filter="url(#filter0_b_11439_3844)">
<path d="M27.6361 12.5075C26.212 11.8032 24.6893 11.2914 23.0973 11C22.9018 11.3736 22.6734 11.8761 22.5159 12.2759C20.8236 12.0069 19.1469 12.0069 17.4857 12.2759C17.3283 11.8761 17.0947 11.3736 16.8974 11C15.3037 11.2914 13.7793 11.8051 12.3552 12.5112C9.48276 17.099 8.70409 21.5729 9.09342 25.9832C10.9986 27.4869 12.8449 28.4004 14.66 28.9981C15.1082 28.3462 15.5079 27.6532 15.8522 26.9228C15.1964 26.6594 14.5683 26.3344 13.9748 25.9571C14.1323 25.8338 14.2863 25.7049 14.4351 25.5722C18.055 27.3618 21.9882 27.3618 25.5648 25.5722C25.7154 25.7049 25.8694 25.8338 26.0251 25.9571C25.4299 26.3362 24.8 26.6613 24.1442 26.9247C24.4885 27.6532 24.8865 28.3481 25.3364 29C27.1533 28.4022 29.0014 27.4888 30.9065 25.9832C31.3633 20.8705 30.1261 16.4377 27.6361 12.5075ZM16.3454 23.2709C15.2587 23.2709 14.3676 22.1986 14.3676 20.8929C14.3676 19.5872 15.2397 18.5131 16.3454 18.5131C17.4511 18.5131 18.3423 19.5853 18.3232 20.8929C18.325 22.1986 17.4511 23.2709 16.3454 23.2709ZM23.6545 23.2709C22.5678 23.2709 21.6767 22.1986 21.6767 20.8929C21.6767 19.5872 22.5488 18.5131 23.6545 18.5131C24.7602 18.5131 25.6514 19.5853 25.6323 20.8929C25.6323 22.1986 24.7602 23.2709 23.6545 23.2709Z" fill="white"/>
</g>
<defs>
<filter id="filter0_b_11439_3844" x="-50" y="-50" width="140" height="140" filterUnits="userSpaceOnUse" color-interpolation-filters="sRGB">
<feFlood flood-opacity="0" result="BackgroundImageFix"/>
<feGaussianBlur in="BackgroundImage" stdDeviation="25"/>
<feComposite in2="SourceAlpha" operator="in" result="effect1_backgroundBlur_11439_3844"/>
<feBlend mode="normal" in="SourceGraphic" in2="effect1_backgroundBlur_11439_3844" result="shape"/>
</filter>
</defs>
</svg>
