<svg width="95" height="26" viewBox="0 0 95 26" fill="none" xmlns="http://www.w3.org/2000/svg">
<path d="M31.8778 19.0284V22.7923H29.6836C28.1199 22.7923 26.9009 22.403 26.0265 21.6242C25.1522 20.8282 24.715 19.5389 24.715 17.7565V11.9938H23V8.30779H24.715V4.7775H29.0279V8.30779H31.8526V11.9938H29.0279V17.8084C29.0279 18.241 29.1287 18.5525 29.3305 18.7429C29.5323 18.9333 29.8686 19.0284 30.3394 19.0284H31.8778Z" fill="#7597E8"/>
<path d="M38.593 8.30779V22.7923H34.2802V8.30779H38.593Z" fill="#7597E8"/>
<path d="M46.0313 3.58344V22.7923H41.7184V3.58344H46.0313Z" fill="#7597E8"/>
<path d="M53.4695 3.58344V22.7923H49.1567V3.58344H53.4695Z" fill="#7597E8"/>
<path d="M58.764 6.80222C58.0074 6.80222 57.3852 6.57726 56.8976 6.12732C56.4268 5.66007 56.1914 5.089 56.1914 4.41409C56.1914 3.72188 56.4268 3.1508 56.8976 2.70087C57.3852 2.23362 58.0074 2 58.764 2C59.5038 2 60.1091 2.23362 60.5799 2.70087C61.0675 3.1508 61.3113 3.72188 61.3113 4.41409C61.3113 5.089 61.0675 5.66007 60.5799 6.12732C60.1091 6.57726 59.5038 6.80222 58.764 6.80222ZM60.9078 8.30779V22.7923H56.595V8.30779H60.9078Z" fill="#7597E8"/>
<path d="M77.2996 15.3164C77.2996 15.7318 77.2744 16.1644 77.2239 16.6143H67.4633C67.5306 17.5142 67.808 18.2064 68.2956 18.691C68.8001 19.1582 69.4138 19.3918 70.1368 19.3918C71.2129 19.3918 71.9611 18.9246 72.3815 17.9901H76.9717C76.7363 18.9419 76.3076 19.7985 75.6854 20.5599C75.0801 21.3214 74.3151 21.9184 73.3903 22.3511C72.4655 22.7837 71.4315 23 70.2881 23C68.9093 23 67.6819 22.6972 66.6058 22.0915C65.5297 21.4858 64.689 20.6205 64.0837 19.4957C63.4784 18.3708 63.1757 17.0556 63.1757 15.5501C63.1757 14.0445 63.47 12.7293 64.0585 11.6045C64.6638 10.4796 65.5045 9.61434 66.5806 9.00865C67.6567 8.40297 68.8925 8.10012 70.2881 8.10012C71.65 8.10012 72.8607 8.39431 73.92 8.9827C74.9792 9.57108 75.8031 10.4104 76.3916 11.5006C76.9969 12.5909 77.2996 13.8628 77.2996 15.3164ZM72.8859 14.1483C72.8859 13.3869 72.6337 12.7812 72.1292 12.3313C71.6248 11.8813 70.9943 11.6564 70.2377 11.6564C69.5147 11.6564 68.9009 11.8727 68.3965 12.3053C67.9089 12.7379 67.6063 13.3523 67.4886 14.1483H72.8859Z" fill="#7597E8"/>
<path d="M85.3 23C84.0726 23 82.9797 22.7837 82.0213 22.3511C81.0629 21.9184 80.3062 21.33 79.7514 20.5859C79.1965 19.8245 78.8854 18.9765 78.8182 18.042H83.0806C83.131 18.5439 83.358 18.9506 83.7615 19.2621C84.1651 19.5735 84.6611 19.7293 85.2496 19.7293C85.7876 19.7293 86.1996 19.6255 86.4854 19.4178C86.7881 19.1928 86.9394 18.9073 86.9394 18.5612C86.9394 18.1459 86.7292 17.843 86.3089 17.6527C85.8885 17.445 85.2075 17.22 84.2659 16.9777C83.2571 16.7355 82.4164 16.4845 81.7438 16.225C81.0713 15.9481 80.4912 15.5241 80.0036 14.953C79.516 14.3646 79.2722 13.5773 79.2722 12.5909C79.2722 11.7602 79.4907 11.0074 79.9279 10.3325C80.3819 9.6403 81.0376 9.09518 81.8952 8.69716C82.7695 8.29913 83.8036 8.10012 84.9974 8.10012C86.7628 8.10012 88.15 8.55006 89.1589 9.44994C90.1845 10.3498 90.773 11.5439 90.9243 13.0321H86.9394C86.8721 12.5303 86.6536 12.1323 86.2836 11.8381C85.9305 11.5439 85.4598 11.3968 84.8713 11.3968C84.3668 11.3968 83.9801 11.5006 83.7111 11.7083C83.4421 11.8986 83.3075 12.1669 83.3075 12.513C83.3075 12.9283 83.5177 13.2398 83.9381 13.4475C84.3752 13.6551 85.0478 13.8628 85.9558 14.0705C86.9982 14.3473 87.8474 14.6242 88.5031 14.9011C89.1589 15.1607 89.7305 15.5933 90.2181 16.199C90.7226 16.7874 90.9832 17.5834 91 18.5871C91 19.4351 90.7646 20.1965 90.2938 20.8714C89.8398 21.529 89.1757 22.0482 88.3013 22.4289C87.4438 22.8096 86.4434 23 85.3 23Z" fill="#7597E8"/>
<path d="M11.5 3L13.6329 9.56434H20.535L14.9511 13.6213L17.084 20.1857L11.5 16.1287L5.91604 20.1857L8.04892 13.6213L2.46496 9.56434H9.36712L11.5 3Z" fill="#FFB25C"/>
<path d="M36.5 2L37.0902 3.90983H39L37.4549 5.09017L38.0451 7L36.5 5.81966L34.9549 7L35.5451 5.09017L34 3.90983H35.9098L36.5 2Z" fill="#FFB25C"/>
</svg>
