<svg width="24" height="24" viewBox="0 0 24 24" fill="none" xmlns="http://www.w3.org/2000/svg">
<path d="M15.6221 21.363C15.4654 21.363 15.3102 21.3117 15.1845 21.2061L10.6027 17.363H4.59039C3.68538 17.363 2.93988 16.5868 2.93988 15.6407V5.42892C2.93988 4.48699 3.68538 3.73535 4.59039 3.73535H18.9222C19.8368 3.73535 20.5779 4.487 20.5779 5.42892V15.6407C20.5779 16.5869 19.8368 17.363 18.9222 17.363H16.3039V20.6601C16.3039 20.9321 16.1536 21.1796 15.9127 21.2957C15.819 21.3409 15.7219 21.363 15.6221 21.363ZM4.59039 5.13961C4.44494 5.13961 4.32632 5.26216 4.32632 5.42892V15.6407C4.32632 15.8088 4.4474 15.9587 4.59039 15.9587H10.8496C11.0092 15.9587 11.1612 16.0114 11.2844 16.1149L14.9279 19.1718V16.6537C14.9279 16.2655 15.2416 15.9588 15.622 15.9588H18.9222C19.0694 15.9588 19.2019 15.803 19.2019 15.6407V5.42892C19.2019 5.26779 19.072 5.13961 18.9222 5.13961H4.59039Z" fill="#87868D"/>
</svg>
