<svg width="24" height="24" viewBox="0 0 24 24" fill="none" xmlns="http://www.w3.org/2000/svg">
<path d="M11.9722 20.247C11.7084 20.2477 11.4471 20.1961 11.2033 20.0954C10.9595 19.9947 10.738 19.8467 10.5516 19.6601L3.68195 12.7905C3.13928 12.2419 2.71119 11.5908 2.42264 10.8752C2.13409 10.1595 1.99084 9.3936 2.00123 8.62203C2.00646 7.91495 2.15113 7.21585 2.42697 6.56478C2.7028 5.9137 3.10437 5.32344 3.60868 4.8278C4.11299 4.33216 4.71013 3.94089 5.3659 3.67639C6.02166 3.41189 6.72316 3.27937 7.43022 3.28641C8.14994 3.27916 8.86379 3.41651 9.52942 3.69033C10.1951 3.96414 10.7989 4.36884 11.3052 4.88042L11.9722 5.54738L12.5191 5.00047C13.4634 4.0311 14.7271 3.43681 16.076 3.32767C17.4249 3.21853 18.7677 3.60194 19.8556 4.40689C20.4748 4.88379 20.9854 5.48716 21.3533 6.17682C21.7211 6.86648 21.9378 7.62659 21.9889 8.40655C22.04 9.1865 21.9244 9.9684 21.6497 10.7002C21.375 11.4319 20.9475 12.0968 20.3958 12.6504L13.3928 19.6601C13.2064 19.8467 12.9849 19.9947 12.7411 20.0954C12.4973 20.1961 12.236 20.2477 11.9722 20.247ZM7.40355 4.61364C6.34344 4.61256 5.3245 5.02396 4.56233 5.7608C4.17376 6.13466 3.86475 6.58319 3.65387 7.07945C3.44298 7.57572 3.33457 8.10949 3.33514 8.64871C3.32929 9.24184 3.44124 9.83023 3.66449 10.3798C3.88774 10.9293 4.21785 11.4291 4.63569 11.8501L11.5053 18.7197C11.5673 18.7822 11.6411 18.8318 11.7223 18.8657C11.8036 18.8995 11.8908 18.917 11.9788 18.917C12.0669 18.917 12.1541 18.8995 12.2353 18.8657C12.3166 18.8318 12.3904 18.7822 12.4524 18.7197L19.4621 11.7034C19.8735 11.2832 20.1914 10.7807 20.3949 10.229C20.5983 9.67723 20.6827 9.08867 20.6426 8.50198C20.6069 7.90927 20.4437 7.33125 20.164 6.80748C19.8842 6.28372 19.4946 5.82658 19.0219 5.46734C18.1923 4.85567 17.1686 4.56646 16.1416 4.65358C15.1145 4.7407 14.1542 5.19821 13.4395 5.94088L12.4457 6.96132C12.3837 7.02383 12.3099 7.07345 12.2287 7.10731C12.1474 7.14117 12.0602 7.1586 11.9722 7.1586C11.8841 7.1586 11.797 7.14117 11.7157 7.10731C11.6344 7.07345 11.5606 7.02383 11.4986 6.96132L10.3648 5.8275C9.58388 5.05335 8.52984 4.61736 7.43022 4.61364H7.40355Z" fill="#87868D" stroke="#87868D" stroke-width="0.0884722"/>
</svg>
