<svg width="24" height="24" viewBox="0 0 24 24" fill="none" xmlns="http://www.w3.org/2000/svg">
<path d="M19.3618 7.36179C19.1341 7.53252 18.9065 7.6748 18.6504 7.81707C18.6789 8.04472 18.6789 8.30081 18.6789 8.55691C18.6789 11.8577 17.2561 14.8455 15.0081 16.9228C13.2439 18.2317 11.0528 19 8.6626 19C6.58537 19 4.65041 18.4024 3 17.378C3.34146 17.435 3.68293 17.4634 4.05285 17.4634C5.70325 17.4634 7.21138 16.8943 8.4065 15.9553C6.86992 15.9268 5.56098 14.9024 5.10569 13.4797C5.30488 13.5081 5.53252 13.5366 5.76016 13.5366C6.07317 13.5366 6.35772 13.5081 6.64228 13.4228C5.9878 13.2805 5.4187 12.939 4.96341 12.4837C4.30894 11.8577 3.91057 10.9472 3.91057 9.97967C3.91057 9.95122 3.91057 9.95122 3.91057 9.92276C4.3374 10.1504 4.79268 10.2927 5.30488 10.3496C4.79268 9.95122 4.36585 9.41057 4.13821 8.78455C3.99593 8.38618 3.91057 7.95935 3.91057 7.53252C3.91057 7.36179 3.91057 7.1626 3.93902 6.99187C4.02439 6.50813 4.19512 6.05285 4.42276 5.68293C4.67886 5.96748 4.96341 6.25203 5.27642 6.53659C5.4187 6.67886 5.58943 6.79268 5.73171 6.93496C6.61382 7.64634 7.60976 8.21545 8.6626 8.64228C8.80488 8.69919 8.9187 8.7561 9.06097 8.78455C9.54471 8.95528 10.0285 9.09756 10.5406 9.18293C10.6545 9.21138 10.7683 9.23984 10.8821 9.23984C10.939 9.23984 10.9675 9.26829 11.0244 9.26829C11.252 9.29675 11.4512 9.3252 11.6789 9.35366C11.622 9.09756 11.565 8.81301 11.565 8.5C11.565 7.30488 12.1626 6.25203 13.0732 5.62602C13.1301 5.56911 13.187 5.54065 13.2724 5.5122C13.2724 5.5122 13.3008 5.51219 13.3008 5.54065V5.5122C13.8415 5.19919 14.439 5 15.1219 5C16.1463 5 17.0569 5.42683 17.7114 6.13821C17.939 6.0813 18.1951 6.02439 18.4228 5.96748C18.6789 5.88211 18.9065 5.8252 19.1341 5.71138C19.4187 5.59756 19.6748 5.45528 19.9309 5.31301C19.7886 5.73984 19.561 6.13821 19.2764 6.47967C19.0772 6.70732 18.8496 6.9065 18.622 7.10569C18.565 7.13415 18.5081 7.19106 18.4512 7.21951C18.4228 7.21951 18.4228 7.21951 18.3943 7.21951C18.3943 7.21951 18.3943 7.21951 18.3943 7.24797L18.4228 7.21951C18.4797 7.21951 18.5366 7.19106 18.622 7.19106C18.878 7.1626 19.1057 7.10569 19.3618 7.04878C19.6179 6.99187 19.874 6.9065 20.1016 6.82114C19.8455 6.99187 19.5894 7.1626 19.3618 7.36179Z" fill="url(#paint0_linear_11642_6848)"/>
<defs>
<linearGradient id="paint0_linear_11642_6848" x1="19" y1="5.5" x2="-3" y2="18" gradientUnits="userSpaceOnUse">
<stop stop-color="#10759E"/>
<stop offset="1" stop-color="#70D4FD"/>
</linearGradient>
</defs>
</svg>
